<mxfile host="app.diagrams.net" modified="2021-01-02T14:52:39.317Z" agent="5.0 (X11; Linux x86_64) AppleWebKit/537.36 (KHTML, like Gecko) Chrome/87.0.4280.88 Safari/537.36" etag="16HpfCwkNjpR4EQKwUBz" version="14.1.3" type="github">
  <diagram id="kdh8-IDG1pBwvDuyrsrl" name="2xx">
    <mxGraphModel dx="2019" dy="1166" grid="1" gridSize="10" guides="1" tooltips="1" connect="1" arrows="1" fold="1" page="1" pageScale="1" pageWidth="850" pageHeight="1100" math="0" shadow="0">
      <root>
        <mxCell id="0" />
        <mxCell id="1" parent="0" />
        <mxCell id="bK8ATGNDr7A6mEPvHZfY-4" style="edgeStyle=orthogonalEdgeStyle;rounded=0;orthogonalLoop=1;jettySize=auto;html=1;" parent="1" source="bK8ATGNDr7A6mEPvHZfY-1" target="bK8ATGNDr7A6mEPvHZfY-2" edge="1">
          <mxGeometry relative="1" as="geometry" />
        </mxCell>
        <mxCell id="bK8ATGNDr7A6mEPvHZfY-1" value="Request Received" style="rounded=1;whiteSpace=wrap;html=1;arcSize=50;fillColor=#d5e8d4;strokeColor=#82b366;" parent="1" vertex="1">
          <mxGeometry x="170" y="60" width="120" height="40" as="geometry" />
        </mxCell>
        <mxCell id="bK8ATGNDr7A6mEPvHZfY-5" style="edgeStyle=orthogonalEdgeStyle;rounded=0;orthogonalLoop=1;jettySize=auto;html=1;entryX=0.5;entryY=0;entryDx=0;entryDy=0;" parent="1" source="bK8ATGNDr7A6mEPvHZfY-2" target="bK8ATGNDr7A6mEPvHZfY-3" edge="1">
          <mxGeometry relative="1" as="geometry" />
        </mxCell>
        <mxCell id="bK8ATGNDr7A6mEPvHZfY-15" style="edgeStyle=orthogonalEdgeStyle;rounded=0;orthogonalLoop=1;jettySize=auto;html=1;entryX=0.433;entryY=-0.075;entryDx=0;entryDy=0;entryPerimeter=0;" parent="1" source="bK8ATGNDr7A6mEPvHZfY-2" target="bK8ATGNDr7A6mEPvHZfY-14" edge="1">
          <mxGeometry relative="1" as="geometry" />
        </mxCell>
        <mxCell id="bK8ATGNDr7A6mEPvHZfY-2" value="Is the request processed immediately?" style="rhombus;whiteSpace=wrap;html=1;fillColor=#ffe6cc;strokeColor=#d79b00;" parent="1" vertex="1">
          <mxGeometry x="170" y="180" width="120" height="120" as="geometry" />
        </mxCell>
        <mxCell id="bK8ATGNDr7A6mEPvHZfY-21" style="edgeStyle=orthogonalEdgeStyle;rounded=0;orthogonalLoop=1;jettySize=auto;html=1;" parent="1" source="bK8ATGNDr7A6mEPvHZfY-3" target="bK8ATGNDr7A6mEPvHZfY-17" edge="1">
          <mxGeometry relative="1" as="geometry" />
        </mxCell>
        <mxCell id="bK8ATGNDr7A6mEPvHZfY-22" style="edgeStyle=orthogonalEdgeStyle;rounded=0;orthogonalLoop=1;jettySize=auto;html=1;entryX=0.5;entryY=0;entryDx=0;entryDy=0;" parent="1" source="bK8ATGNDr7A6mEPvHZfY-3" target="bK8ATGNDr7A6mEPvHZfY-20" edge="1">
          <mxGeometry relative="1" as="geometry" />
        </mxCell>
        <mxCell id="bK8ATGNDr7A6mEPvHZfY-3" value="Does the resource already exist?" style="rhombus;whiteSpace=wrap;html=1;fillColor=#ffe6cc;strokeColor=#d79b00;" parent="1" vertex="1">
          <mxGeometry x="350" y="310" width="120" height="120" as="geometry" />
        </mxCell>
        <mxCell id="bK8ATGNDr7A6mEPvHZfY-7" value="200 Ok" style="rounded=0;whiteSpace=wrap;html=1;labelBackgroundColor=none;fillColor=#dae8fc;strokeColor=#6c8ebf;" parent="1" vertex="1">
          <mxGeometry x="640" y="640" width="120" height="40" as="geometry" />
        </mxCell>
        <mxCell id="bK8ATGNDr7A6mEPvHZfY-11" value="Yes" style="text;html=1;align=center;verticalAlign=middle;resizable=0;points=[];autosize=1;" parent="1" vertex="1">
          <mxGeometry x="325" y="210" width="40" height="20" as="geometry" />
        </mxCell>
        <mxCell id="bK8ATGNDr7A6mEPvHZfY-13" value="Yes" style="text;html=1;align=center;verticalAlign=middle;resizable=0;points=[];autosize=1;" parent="1" vertex="1">
          <mxGeometry x="490" y="340" width="40" height="20" as="geometry" />
        </mxCell>
        <mxCell id="bK8ATGNDr7A6mEPvHZfY-14" value="202 Accepted" style="rounded=0;whiteSpace=wrap;html=1;labelBackgroundColor=none;fillColor=#dae8fc;strokeColor=#6c8ebf;" parent="1" vertex="1">
          <mxGeometry x="40" y="640" width="120" height="40" as="geometry" />
        </mxCell>
        <mxCell id="bK8ATGNDr7A6mEPvHZfY-16" value="No" style="text;html=1;align=center;verticalAlign=middle;resizable=0;points=[];autosize=1;" parent="1" vertex="1">
          <mxGeometry x="105" y="210" width="30" height="20" as="geometry" />
        </mxCell>
        <mxCell id="bK8ATGNDr7A6mEPvHZfY-17" value="201 Created" style="rounded=0;whiteSpace=wrap;html=1;labelBackgroundColor=none;fillColor=#dae8fc;strokeColor=#6c8ebf;" parent="1" vertex="1">
          <mxGeometry x="200" y="640" width="120" height="40" as="geometry" />
        </mxCell>
        <mxCell id="bK8ATGNDr7A6mEPvHZfY-19" value="No" style="text;html=1;align=center;verticalAlign=middle;resizable=0;points=[];autosize=1;" parent="1" vertex="1">
          <mxGeometry x="300" y="340" width="30" height="20" as="geometry" />
        </mxCell>
        <mxCell id="bK8ATGNDr7A6mEPvHZfY-23" style="edgeStyle=orthogonalEdgeStyle;rounded=0;orthogonalLoop=1;jettySize=auto;html=1;entryX=0.5;entryY=0;entryDx=0;entryDy=0;" parent="1" source="bK8ATGNDr7A6mEPvHZfY-20" target="bK8ATGNDr7A6mEPvHZfY-7" edge="1">
          <mxGeometry relative="1" as="geometry">
            <mxPoint x="730" y="610" as="targetPoint" />
          </mxGeometry>
        </mxCell>
        <mxCell id="bK8ATGNDr7A6mEPvHZfY-27" style="edgeStyle=orthogonalEdgeStyle;rounded=0;orthogonalLoop=1;jettySize=auto;html=1;entryX=0.5;entryY=0;entryDx=0;entryDy=0;" parent="1" source="bK8ATGNDr7A6mEPvHZfY-20" target="bK8ATGNDr7A6mEPvHZfY-24" edge="1">
          <mxGeometry relative="1" as="geometry">
            <mxPoint x="410" y="640" as="targetPoint" />
          </mxGeometry>
        </mxCell>
        <mxCell id="bK8ATGNDr7A6mEPvHZfY-20" value="Is there a&lt;br&gt;response body?" style="rhombus;whiteSpace=wrap;html=1;fillColor=#ffe6cc;strokeColor=#d79b00;" parent="1" vertex="1">
          <mxGeometry x="495" y="460" width="120" height="120" as="geometry" />
        </mxCell>
        <mxCell id="bK8ATGNDr7A6mEPvHZfY-24" value="204 No Content" style="rounded=0;whiteSpace=wrap;html=1;labelBackgroundColor=none;fillColor=#dae8fc;strokeColor=#6c8ebf;" parent="1" vertex="1">
          <mxGeometry x="360" y="640" width="120" height="40" as="geometry" />
        </mxCell>
        <mxCell id="bK8ATGNDr7A6mEPvHZfY-29" value="Yes" style="text;html=1;align=center;verticalAlign=middle;resizable=0;points=[];autosize=1;" parent="1" vertex="1">
          <mxGeometry x="635" y="490" width="40" height="20" as="geometry" />
        </mxCell>
        <mxCell id="bK8ATGNDr7A6mEPvHZfY-30" value="No" style="text;html=1;align=center;verticalAlign=middle;resizable=0;points=[];autosize=1;" parent="1" vertex="1">
          <mxGeometry x="440" y="490" width="30" height="20" as="geometry" />
        </mxCell>
      </root>
    </mxGraphModel>
  </diagram>
</mxfile>
